<svg width="75" height="22" viewBox="0 0 75 22" fill="none" xmlns="http://www.w3.org/2000/svg">
<path d="M1.44 16L1.62 14.56V5.416H3.996V14.272H11.448L12.168 15.802C12.168 15.85 12.006 15.898 11.682 15.946C11.358 15.982 10.8 16 10.008 16H1.44ZM15.6158 16C15.0158 16 14.5538 15.922 14.2298 15.766C13.9058 15.61 13.6718 15.412 13.5278 15.172C13.3958 14.932 13.3118 14.68 13.2758 14.416C13.2518 14.152 13.2398 13.912 13.2398 13.696V10.24C13.2398 10.06 13.2518 9.844 13.2758 9.592C13.3118 9.328 13.3958 9.07 13.5278 8.818C13.6718 8.566 13.9058 8.356 14.2298 8.188C14.5658 8.02 15.0278 7.936 15.6158 7.936H19.4858C20.2778 7.936 20.8958 8.014 21.3398 8.17C21.7958 8.314 22.1138 8.554 22.2938 8.89C22.4858 9.226 22.5818 9.676 22.5818 10.24V12.904H19.4318C18.3518 12.904 17.4698 12.88 16.7858 12.832C16.1138 12.784 15.6638 12.754 15.4358 12.742V13.732C15.4238 14.212 15.7118 14.452 16.2998 14.452H17.2178C17.8658 14.452 18.4958 14.446 19.1078 14.434C19.7318 14.41 20.3018 14.386 20.8178 14.362C21.3338 14.326 21.7478 14.296 22.0598 14.272L22.7798 15.442C22.7798 15.814 21.5978 16 19.2338 16H15.6158ZM15.4358 11.356H20.3858V10.204C20.3858 9.964 20.3558 9.796 20.2958 9.7C20.2478 9.604 20.0918 9.544 19.8278 9.52C19.5638 9.496 19.1138 9.484 18.4778 9.484H16.2998C15.7238 9.484 15.4358 9.724 15.4358 10.204V11.356ZM26.904 16C25.992 16 25.332 15.79 24.924 15.37C24.516 14.938 24.312 14.35 24.312 13.606C24.312 12.826 24.522 12.226 24.942 11.806C25.374 11.386 26.028 11.176 26.904 11.176H27.822C28.722 11.176 29.532 11.2 30.252 11.248C30.972 11.296 31.566 11.344 32.034 11.392V10.204C32.034 10.096 32.022 9.988 31.998 9.88C31.974 9.76 31.902 9.664 31.782 9.592C31.662 9.52 31.458 9.484 31.17 9.484H30.27C28.962 9.484 27.87 9.508 26.994 9.556C26.118 9.592 25.524 9.628 25.212 9.664L25.014 8.296C25.014 8.128 25.47 8.026 26.382 7.99C27.294 7.954 28.818 7.936 30.954 7.936H31.854C32.454 7.936 32.916 8.02 33.24 8.188C33.564 8.356 33.792 8.566 33.924 8.818C34.068 9.07 34.152 9.328 34.176 9.592C34.212 9.844 34.23 10.06 34.23 10.24V16H32.754L32.052 15.64C31.548 15.724 30.942 15.808 30.234 15.892C29.526 15.964 28.716 16 27.804 16H26.904ZM27.372 14.452H31.494C31.758 14.452 31.914 14.428 31.962 14.38C32.01 14.332 32.034 14.182 32.034 13.93V12.544H27.372C27.048 12.544 26.82 12.622 26.688 12.778C26.568 12.934 26.508 13.18 26.508 13.516C26.508 13.852 26.58 14.092 26.724 14.236C26.868 14.38 27.084 14.452 27.372 14.452ZM36.3066 16V7.936H37.7826L38.4666 8.296C38.7786 8.128 39.1146 7.996 39.4746 7.9C39.8346 7.804 40.2906 7.756 40.8426 7.756C41.7186 7.756 42.4266 7.852 42.9666 8.044C43.5186 8.236 43.8846 8.38 44.0646 8.476L43.4346 10.042C43.2906 9.97 43.0506 9.88 42.7146 9.772C42.3906 9.652 42.0066 9.544 41.5626 9.448C41.1186 9.352 40.6326 9.304 40.1046 9.304H39.9066C39.3306 9.304 38.9526 9.418 38.7726 9.646C38.6046 9.874 38.5146 10.252 38.5026 10.78V16H36.3066ZM45.3241 16V7.936H46.8001L47.5201 8.296C48.0241 8.2 48.6301 8.116 49.3381 8.044C50.0461 7.972 50.8561 7.936 51.7681 7.936H52.6681C53.2681 7.936 53.7301 8.02 54.0541 8.188C54.3781 8.356 54.6061 8.566 54.7381 8.818C54.8821 9.07 54.9661 9.328 54.9901 9.592C55.0261 9.844 55.0441 10.06 55.0441 10.24V16H52.8481V10.204C52.8481 9.724 52.5601 9.484 51.9841 9.484H48.0601C47.8321 9.484 47.6821 9.508 47.6101 9.556C47.5501 9.592 47.5201 9.7 47.5201 9.88V16H45.3241ZM58.3971 6.802C57.9531 6.802 57.6291 6.712 57.4251 6.532C57.2211 6.352 57.1191 6.052 57.1191 5.632C57.1191 5.2 57.2151 4.9 57.4071 4.732C57.6111 4.552 57.9411 4.462 58.3971 4.462C58.8531 4.462 59.1831 4.552 59.3871 4.732C59.5911 4.9 59.6931 5.2 59.6931 5.632C59.6931 6.04 59.5911 6.34 59.3871 6.532C59.1831 6.712 58.8531 6.802 58.3971 6.802ZM57.2991 16V7.936H59.4951V16H57.2991ZM60.9476 16L61.6316 14.92L65.6276 10.708L60.9476 5.416H63.8276L67.3016 9.394H67.4996L70.9916 5.416H73.8716L73.1696 6.478L69.1916 10.708L73.8716 16H70.9916L67.4996 11.986H67.3016L63.8276 16H60.9476Z" fill="#E5E6FF"/>
</svg>
